G75*
G70*
%OFA0B0*%
%FSLAX24Y24*%
%IPPOS*%
%LPD*%
%AMOC8*
5,1,8,0,0,1.08239X$1,22.5*
%
%ADD10C,0.0100*%
D10*
X000325Y002150D02*
X000327Y002248D01*
X000335Y002346D01*
X000347Y002443D01*
X000363Y002540D01*
X000385Y002636D01*
X000411Y002731D01*
X000442Y002824D01*
X000477Y002915D01*
X000517Y003005D01*
X000561Y003093D01*
X000610Y003178D01*
X000662Y003261D01*
X000719Y003341D01*
X000779Y003419D01*
X000843Y003493D01*
X000911Y003564D01*
X000982Y003632D01*
X001056Y003696D01*
X001134Y003756D01*
X001214Y003813D01*
X001297Y003865D01*
X001382Y003914D01*
X001470Y003958D01*
X001560Y003998D01*
X001651Y004033D01*
X001744Y004064D01*
X001839Y004090D01*
X001935Y004112D01*
X002032Y004128D01*
X002129Y004140D01*
X002227Y004148D01*
X002325Y004150D01*
X002423Y004148D01*
X002521Y004140D01*
X002618Y004128D01*
X002715Y004112D01*
X002811Y004090D01*
X002906Y004064D01*
X002999Y004033D01*
X003090Y003998D01*
X003180Y003958D01*
X003268Y003914D01*
X003353Y003865D01*
X003436Y003813D01*
X003516Y003756D01*
X003594Y003696D01*
X003668Y003632D01*
X003739Y003564D01*
X003807Y003493D01*
X003871Y003419D01*
X003931Y003341D01*
X003988Y003261D01*
X004040Y003178D01*
X004089Y003093D01*
X004133Y003005D01*
X004173Y002915D01*
X004208Y002824D01*
X004239Y002731D01*
X004265Y002636D01*
X004287Y002540D01*
X004303Y002443D01*
X004315Y002346D01*
X004323Y002248D01*
X004325Y002150D01*
X004323Y002052D01*
X004315Y001954D01*
X004303Y001857D01*
X004287Y001760D01*
X004265Y001664D01*
X004239Y001569D01*
X004208Y001476D01*
X004173Y001385D01*
X004133Y001295D01*
X004089Y001207D01*
X004040Y001122D01*
X003988Y001039D01*
X003931Y000959D01*
X003871Y000881D01*
X003807Y000807D01*
X003739Y000736D01*
X003668Y000668D01*
X003594Y000604D01*
X003516Y000544D01*
X003436Y000487D01*
X003353Y000435D01*
X003268Y000386D01*
X003180Y000342D01*
X003090Y000302D01*
X002999Y000267D01*
X002906Y000236D01*
X002811Y000210D01*
X002715Y000188D01*
X002618Y000172D01*
X002521Y000160D01*
X002423Y000152D01*
X002325Y000150D01*
X002227Y000152D01*
X002129Y000160D01*
X002032Y000172D01*
X001935Y000188D01*
X001839Y000210D01*
X001744Y000236D01*
X001651Y000267D01*
X001560Y000302D01*
X001470Y000342D01*
X001382Y000386D01*
X001297Y000435D01*
X001214Y000487D01*
X001134Y000544D01*
X001056Y000604D01*
X000982Y000668D01*
X000911Y000736D01*
X000843Y000807D01*
X000779Y000881D01*
X000719Y000959D01*
X000662Y001039D01*
X000610Y001122D01*
X000561Y001207D01*
X000517Y001295D01*
X000477Y001385D01*
X000442Y001476D01*
X000411Y001569D01*
X000385Y001664D01*
X000363Y001760D01*
X000347Y001857D01*
X000335Y001954D01*
X000327Y002052D01*
X000325Y002150D01*
M02*
